<?xml version="1.0" encoding="utf-8"?>
<!-- Generator: Adobe Illustrator 17.0.0, SVG Export Plug-In . SVG Version: 6.00 Build 0)  -->
<!DOCTYPE svg PUBLIC "-//W3C//DTD SVG 1.1//EN" "http://www.w3.org/Graphics/SVG/1.1/DTD/svg11.dtd">
<svg version="1.1" id="图层_1" xmlns:ev="http://www.w3.org/2001/xml-events"
	 xmlns="http://www.w3.org/2000/svg" xmlns:xlink="http://www.w3.org/1999/xlink" x="0px" y="0px" width="322px" height="20px"
	 viewBox="0 0 322 20" enable-background="new 0 0 322 20" xml:space="preserve">
<path fill="#121414" d="M1,0h320v20H1V0z"/>
<path fill="#F6F9FA" d="M0,0h1v20H0V0z M321,0h1v20h-1V0z"/>
<path opacity="0.6" fill="#FFFFFF" enable-background="new    " d="M312.5,3.25v14h-10v-14h3v-0.5h4v0.5H312.5z M279.75,17h14V3
	L279.75,17z M277.392,6.483c-5.67-5.257-14.528-4.922-19.785,0.749c3.483,3.229,10.267,9.518,10.267,9.518
	S275.183,8.867,277.392,6.483z"/>
<path opacity="0.6" fill="#FFFFFF" d="M62.015,6.064h1.495v1.002h-2.098c0,0-0.408-0.015-0.58-0.449l-0.464-0.921h-0.22v1.692h3.257
	l-0.475,1.289h0.545v1.888c0,0-0.047,0.576-0.858,0.576h-3.976V10.22h3.42c0,0,0.082-0.027,0.081-0.081V9.644h-0.974l0.29-1.151
	h-3.478l-0.452,1.923c0,0-0.196,0.83-1.02,0.725h-1.09v-1.001h0.592c0,0,0.181-0.024,0.22-0.184l0.348-1.462h-1.159V7.388h3.292
	V5.696h-0.186l-0.464,0.921c0,0-0.279,0.487-1.055,0.472h-1.553V6.064h1.414c0,0,0.181-0.011,0.255-0.161l0.07-0.207h-1.774V4.74
	h3.292V4.372h-3.327V3.335h6.677c0,0,0.091-0.019,0.116-0.138V3.013h1.298v0.61c0,0-0.082,0.748-1.101,0.748h-2.226v0.357h3.362
	v0.967h-1.808l0.104,0.253C61.806,5.949,61.881,6.064,62.015,6.064z M54.886,14.008c-0.088-0.512-0.499-0.46-0.499-0.46
	c-0.598,0-0.591,0.817-0.591,0.817c0,1.015,0.603,0.921,0.603,0.921c0.437,0,0.487-0.518,0.487-0.518h0.951
	c-0.109,1.365-1.426,1.313-1.426,1.313c-1.662,0-1.565-1.704-1.565-1.704c0-1.661,1.53-1.623,1.53-1.623
	c1.451,0,1.438,1.255,1.438,1.255H54.886z M52.916,4.774l-0.661-0.829h-4.022L47.56,4.89c0,0-0.117,0.127-0.278,0.127h-1.171V3.98
	h0.499c0,0,0.037,0,0.069-0.058l0.696-1.013h5.68l0.707,0.979c0,0,0.048,0.062,0.139,0.057h0.406v1.036h-1.101
	C53.205,4.982,53.041,4.982,52.916,4.774z M45.207,14.307l1.147,1.692h-1.182l-0.556-0.944l-0.556,0.944h-1.136l1.159-1.669
	l-1.043-1.497h1.148l0.475,0.875l0.475-0.875h1.101L45.207,14.307z M44.338,11.141h-1.762v-0.955h0.997
	c0.146,0,0.151-0.138,0.151-0.138V8.424h-5.101l-0.301,0.38c-0.177,0.214-0.475,0.184-0.475,0.184h-0.951V7.894h0.267
	c0.149,0,0.197-0.092,0.197-0.092l0.475-0.783h-0.614V2.979h7.766v3.293c-0.019,0.796-0.788,0.783-0.788,0.783h-4.845l-0.22,0.368
	h5.923v3.028C45.005,11.174,44.338,11.141,44.338,11.141z M43.515,4.015h-4.961v0.541h4.961V4.015z M43.468,6.098
	c0,0,0.08-0.036,0.081-0.103V5.523h-4.996v0.576H43.468z M37.904,9.967l0.869-1.186h1.588l-1.611,2.095c0,0-0.269,0.231-0.603,0.196
	h-1.287v-0.956h0.858C37.719,10.116,37.823,10.093,37.904,9.967z M39.098,13.639h-1.611v0.391h1.46v0.76h-1.46v0.403h1.658v0.806
	h-2.608v-3.166h2.562C39.098,12.833,39.098,13.639,39.098,13.639z M34.205,16.163c-0.068,0.116-0.182,0.182-0.316,0.182h-0.933
	c-0.134,0-0.249-0.066-0.316-0.182l-0.466-0.805c-0.068-0.116-0.068-0.248,0-0.365l0.466-0.805c0.068-0.116,0.182-0.182,0.316-0.182
	h0.933c0.134,0,0.249,0.066,0.316,0.182l0.466,0.805c0.068,0.117,0.068,0.249,0,0.365L34.205,16.163z M14.838,10.796h-0.933
	c-0.135,0-0.249-0.066-0.316-0.182l-0.466-0.805c-0.068-0.116-0.068-0.248,0-0.365l0.466-0.805c0.067-0.116,0.182-0.182,0.316-0.182
	h0.933c0.134,0,0.249,0.066,0.316,0.182l0.466,0.805c0.067,0.116,0.067,0.248,0,0.365l-0.466,0.805
	C15.087,10.73,14.973,10.796,14.838,10.796z M31.52,15.298c-0.383,0.667-1.034,1.046-1.8,1.046h-5.308
	c-0.765,0-1.417-0.379-1.8-1.046l-1.257-2.192l1.337-2.297l1.466,2.547c0.251,0.436,0.679,0.684,1.182,0.684h3.486
	c0.503,0,0.93-0.248,1.182-0.684l1.742-3.027c0.252-0.438,0.252-0.934,0-1.371l-1.742-3.027c-0.252-0.437-0.679-0.685-1.182-0.685
	H25.34c-0.502,0-0.93,0.248-1.182,0.685l-5.351,9.366c-0.383,0.667-1.034,1.046-1.799,1.046H11.7c-0.765,0-1.416-0.379-1.799-1.046
	l-2.653-4.624c-0.383-0.668-0.383-1.427,0-2.095l2.653-4.624C10.284,3.289,10.936,2.91,11.7,2.91h5.308
	c0.765,0,1.416,0.379,1.799,1.046l1.268,2.211L18.74,8.439l-1.443-2.507c-0.251-0.437-0.679-0.685-1.182-0.685h-3.486
	c-0.503,0-0.931,0.248-1.182,0.685L9.705,8.959c-0.252,0.437-0.252,0.934,0,1.371l1.742,3.027c0.251,0.436,0.679,0.684,1.182,0.684
	h3.486c0.502,0,0.93-0.248,1.182-0.684l5.316-9.401c0.383-0.667,1.034-1.046,1.8-1.046h5.308c0.765,0,1.417,0.379,1.8,1.046
	l2.652,4.624c0.383,0.668,0.383,1.427,0,2.095L31.52,15.298z M40.918,11.106h-1.31v-0.955h0.533
	c0.162,0.001,0.244-0.127,0.244-0.127l0.951-1.163h1.623l-1.6,2.072C41.199,11.091,40.918,11.106,40.918,11.106z M41.139,12.753
	c1.619,0,1.588,1.646,1.588,1.646c0,0.735-0.359,1.128-0.359,1.128l0.371,0.38l-0.44,0.438l-0.417-0.438
	c-0.157,0.144-0.661,0.173-0.661,0.173c-1.701,0.007-1.634-1.67-1.634-1.67C39.635,12.69,41.139,12.753,41.139,12.753z
	 M41.162,15.285c0,0,0.088-0.006,0.116-0.023l-0.267-0.265l0.44-0.426l0.255,0.265c0,0,0.07-0.108,0.07-0.403
	c0,0,0.067-0.886-0.626-0.886c0,0-0.614-0.066-0.614,0.898C40.536,14.445,40.52,15.285,41.162,15.285z M47.514,15.999h-0.951v-3.166
	h0.951V15.999z M47.966,12.833h0.95v1.98c0,0.515,0.499,0.472,0.499,0.472c0.469,0,0.487-0.483,0.487-0.483v-1.969h0.951v2.049
	c0,1.29-1.403,1.198-1.403,1.198c-1.603,0-1.484-1.22-1.484-1.22V12.833z M54.272,10.105v1.036h-8.091v-1.025h0.8V5.557h1.194v4.548
	h1.368V4.659h1.333v1.508h3.327v1.105h-3.327v2.832H54.272z M52.371,15.999h-0.904v-0.875h0.904V15.999z M57.808,12.753
	c1.583,0,1.576,1.635,1.576,1.635c0,1.749-1.553,1.692-1.553,1.692c-1.683,0-1.588-1.739-1.588-1.739
	C56.329,12.684,57.808,12.753,57.808,12.753z M57.193,14.422c0,0.873,0.614,0.863,0.614,0.863c0.655,0,0.626-0.875,0.626-0.875
	c0.001-0.893-0.614-0.875-0.614-0.875C57.166,13.536,57.193,14.422,57.193,14.422z M61.691,14.698l0.452-1.865h1.356v3.166h-0.904
	v-2.072l-0.545,2.072h-0.719l-0.545-2.038v2.038h-0.904v-3.166h1.356L61.691,14.698z"/>
</svg>
